# xmcd
#
# Track frame offsets: 
#        150
#        13805
#        33477
#        39757
#        44974
#        65088
#        66932
#        80089
#        103182
#        114168
#        120761
#        129414
#        147320
#        151122
#        160583
#        168437
#        173517
#        176911
#        186836
#        197924
#
# Disc length: 2793 seconds
#
# Revision: 0
# Processed by: cddbd v1.5.2PL0 Copyright (c) Steve Scherf et al.
# Submitted via: ExactAudioCopy v0.99pb3
#
DISCID=120ae714
DTITLE=Booba - Autopsie vol. 2
DYEAR=2007
DGENRE=Hip-Hop
TTITLE0=Garcimore
TTITLE1=Le D.U.C.
TTITLE2=Freestyle Boulbi (Cut Killer Show)
TTITLE3=Mix-Tape Evolution
TTITLE4=Mala - Tu M'Connais Pas
TTITLE5=Freestyle Ouais Ouais (Planète Rap)
TTITLE6=Me And You Remix feat. Cassie
TTITLE7=Du Biff - 92i
TTITLE8=Mauvais Garçon Remix feat. Riddla (971)
TTITLE9=Je Me Souviens (Freestyle)
TTITLE10=Quoi Qu'il Arrive Feat. Dje
TTITLE11=Hustlin' Remix feat. Rick Ross
TTITLE12=Ouest Side (Freestyle)
TTITLE13=Remo (Bronx) feat. Momma
TTITLE14=Patrimoine Du Ghetto (Intro)
TTITLE15=On Sait L'Faire feat. 113
TTITLE16=Boite Vocale Freestyle
TTITLE17=Dje - Monnaie Dans L'Crâne
TTITLE18=Tout Et Tout D'Suite
TTITLE19=Au Bout Des Rêves (Freestyle)
EXTD=
EXTT0=
EXTT1=
EXTT2=
EXTT3=
EXTT4=
EXTT5=
EXTT6=
EXTT7=
EXTT8=
EXTT9=
EXTT10=
EXTT11=
EXTT12=
EXTT13=
EXTT14=
EXTT15=
EXTT16=
EXTT17=
EXTT18=
EXTT19=
PLAYORDER=
